PathFileType	4	(X/Y/Z)	C:/Users/opensim2020/Desktop/walking_exp_matlab/subject01_walking12_straight_04.trc																																																																																																																																		
DataRate	CameraRate	NumFrames	NumMarkers	Units	OrigDataRate	OrigDataStartFrame	OrigNumFrames																																																																																																																														
100	100	5	44	mm	100	2479	172																																																																																																																														
Frame#	Time	LFHD			RFHD			LBHD			RBHD			C7			T10			CLAV			STRN			RBAK			LSHO			LUPA			LELB			LFRM			LWRA			LWRB			LFIN			RSHO			RUPA			RELB			RFRM			RWRA			RWRB			RFIN			LASI			RASI			LPSI			RPSI			LTHI			LKNE			LTIB			LANK			LHEE			LTOE			RTHI			RKNE			RTIB			RANK			RHEE			RTOE			*39			*40			*41			*42			*43		
		X1	Y1	Z1	X2	Y2	Z2	X3	Y3	Z3	X4	Y4	Z4	X5	Y5	Z5	X6	Y6	Z6	X7	Y7	Z7	X8	Y8	Z8	X9	Y9	Z9	X10	Y10	Z10	X11	Y11	Z11	X12	Y12	Z12	X13	Y13	Z13	X14	Y14	Z14	X15	Y15	Z15	X16	Y16	Z16	X17	Y17	Z17	X18	Y18	Z18	X19	Y19	Z19	X20	Y20	Z20	X21	Y21	Z21	X22	Y22	Z22	X23	Y23	Z23	X24	Y24	Z24	X25	Y25	Z25	X26	Y26	Z26	X27	Y27	Z27	X28	Y28	Z28	X29	Y29	Z29	X30	Y30	Z30	X31	Y31	Z31	X32	Y32	Z32	X33	Y33	Z33	X34	Y34	Z34	X35	Y35	Z35	X36	Y36	Z36	X37	Y37	Z37	X38	Y38	Z38	X39	Y39	Z39	X40	Y40	Z40	X41	Y41	Z41	X42	Y42	Z42	X43	Y43	Z43	X44	Y44	Z44
																																																																																																																																					
108	1.07	288.27112	1650.16064	-1590.401	301.84674	1652.95288	-1477.47021	165.20767	1632.65747	-1583.24182	176.33691	1635.46582	-1462.80457	88.99628	1433.36682	-1542.55469	48.2779	1137.88257	-1522.75964	229.46025	1359.36951	-1532.57434	270.16055	1206.33044	-1530.10156	25.76963	1240.54822	-1459.25073	176.01852	1385.68018	-1697.10181	157.662	1201.40833	-1780.72449	160.99976	1048.08777	-1784.72595	227.17894	953.93396	-1808.55811	336.35727	867.02069	-1791.62646	283.53308	845.98553	-1812.37659	347.32571	793.4563	-1826.34875	161.66965	1395.51599	-1383.71094	83.01537	1204.47925	-1281.29333	72.03755	1078.54089	-1275.09717	97.31948	959.57397	-1243.82178	177.32251	842.9057	-1261.83569	133.65677	843.54181	-1223.34766	170.92924	766.89783	-1224.32666	230.5202	933.77118	-1620.8446	223.64824	938.22363	-1403.71985	43.29044	940.414	-1571.69727	41.83494	941.01508	-1426.54785	206.56543	598.58063	-1665.64246	197.36823	463.53	-1645.79968	131.68242	285.03897	-1653.10413	76.10036	74.23095	-1602.06628	24.40728	49.48211	-1552.82483	220.68654	31.58463	-1597.70776	257.85498	614.19604	-1329.32458	301.80304	462.71732	-1343.96326	175.99532	339.5448	-1350.83386	54.84756	177.08655	-1405.93579	0.94371	166.23769	-1465.61621	142.71532	68.0775	-1387.81628	298.15311	1688.04358	-1500.27234	-1973.14917	1023.49011	3101.9751	-2012.48962	1022.04327	3140.77661	NaN	NaN	NaN	NaN	NaN	NaN
109	1.08	298.72064	1650.40686	-1589.70862	312.09464	1652.89429	-1476.71887	175.61664	1633.08191	-1582.78662	186.58545	1635.61609	-1462.27893	99.03929	1433.85059	-1542.6084	57.98989	1138.34656	-1523.05566	239.37399	1359.53015	-1532.47498	279.8515	1206.53918	-1530.34277	35.57938	1240.8335	-1459.69934	186.15977	1386.35803	-1697.01965	168.26195	1202.36572	-1781.41272	173.88219	1048.95593	-1786.19055	243.21906	956.78943	-1810.13281	355.40707	873.98932	-1793.42749	303.30829	851.04419	-1814.02417	368.96307	801.08704	-1828.43799	171.28307	1395.71948	-1383.66553	91.2281	1204.92676	-1281.8363	79.42959	1079.17261	-1275.79504	102.39061	960.08508	-1244.02051	180.46039	841.78564	-1260.9397	136.54996	843.41809	-1222.82629	172.21878	766.02045	-1223.29224	240.34743	934.27924	-1621.47302	233.49409	938.66742	-1404.2749	52.51285	940.92334	-1571.44836	51.66659	941.58643	-1426.20984	211.42987	598.55872	-1665.92261	200.18024	463.51349	-1646.26929	133.13322	285.55017	-1653.06299	76.48409	74.90462	-1601.63574	24.6513	50.62268	-1552.22144	220.70125	31.43752	-1597.74414	271.51086	616.14471	-1329.46863	317.80753	464.64417	-1345.12891	197.64793	335.04761	-1350.98511	84.07627	167.22702	-1406.01563	30.18888	153.3745	-1466.11072	178.44557	64.59581	-1387.25159	308.2869	1687.91736	-1499.44202	-1973.1322	1023.51569	3101.89038	-2012.58276	1022.02625	3140.66162	NaN	NaN	NaN	NaN	NaN	NaN
110	1.09	309.09601	1650.55017	-1588.93433	322.30688	1652.79248	-1475.95886	185.95355	1633.40698	-1582.25598	196.84546	1635.75635	-1461.37988	109.09933	1434.08081	-1542.44788	67.57291	1138.76416	-1523.30469	249.22412	1359.63953	-1532.23303	289.54028	1206.64209	-1530.51489	45.35194	1241.05151	-1460.04041	196.26419	1386.9696	-1696.88635	178.93991	1203.16492	-1781.93774	186.66322	1049.72522	-1787.4873	259.03445	959.71918	-1811.63318	374.04547	881.03009	-1795.12097	322.89572	856.29858	-1815.60291	390.43405	808.92847	-1830.34216	181.16194	1395.75513	-1383.42395	99.40366	1205.40186	-1282.36804	86.5698	1080.00293	-1276.09448	107.52293	960.46429	-1244.11206	183.67459	840.71124	-1260.03796	139.33446	843.39709	-1222.55981	173.6039	765.2088	-1222.20313	249.45677	934.23364	-1621.77148	243.30495	939.21118	-1404.75354	61.77092	941.27936	-1571.08936	61.43402	941.91895	-1425.80933	216.43896	598.62555	-1666.19897	203.23425	463.56827	-1646.62561	134.86169	286.10626	-1652.85791	76.70471	75.7687	-1601.31116	25.04017	51.91964	-1551.77917	220.77504	31.42284	-1597.69519	284.82388	617.88702	-1329.51758	333.12	466.33936	-1346.09888	219.48941	330.2522	-1351.36426	114.12881	157.17215	-1405.86768	61.80557	139.37001	-1465.20435	214.63531	61.37538	-1386.71973	318.66867	1687.99146	-1498.56348	-1972.99561	1023.4361	3102.17969	-2012.45874	1022.07495	3140.83154	NaN	NaN	NaN	NaN	NaN	NaN
111	1.1	319.42883	1650.66309	-1588.13074	332.44281	1652.71252	-1475.08264	196.31305	1633.64001	-1581.70203	206.83829	1635.76648	-1461.13354	119.10495	1434.34595	-1542.27283	77.17088	1139.09021	-1523.39624	259.18616	1359.71753	-1532.02563	299.23215	1206.62402	-1530.61731	55.1095	1241.2135	-1460.2915	206.37209	1387.4458	-1696.64417	189.65111	1203.91272	-1782.40698	199.33464	1050.48022	-1788.60608	274.68768	962.72125	-1813.00024	392.51111	888.23859	-1796.73059	342.14767	861.65869	-1817.05066	411.2836	816.95624	-1832.17139	191.01192	1395.72461	-1383.2002	107.68431	1205.65808	-1282.77417	94.05188	1080.4967	-1276.77454	112.79454	960.91864	-1244.16968	187.06779	839.75934	-1259.06152	141.5927	843.35809	-1222.49792	175.24817	764.4635	-1221.18591	258.46198	934.0882	-1622.01538	253.19731	939.49646	-1405.04883	70.94012	941.45551	-1570.63086	71.27911	942.12939	-1425.24451	221.42793	598.42609	-1666.46228	206.46173	463.5058	-1646.82349	136.70731	286.6958	-1652.64954	77.22953	76.85729	-1601.12317	25.46563	53.02266	-1551.24902	220.78693	31.4064	-1597.69348	297.80679	619.34613	-1329.56641	347.41818	467.78671	-1347.30957	241.12811	325.50079	-1351.48169	144.60414	147.1335	-1405.74841	93.65937	125.74033	-1464.77759	251.08643	58.26561	-1385.93652	328.966	1687.9342	-1497.70166	-1973.13513	1023.49866	3101.89746	-2012.52747	1022.10822	3140.76807	NaN	NaN	NaN	NaN	NaN	NaN
112	1.11	329.71957	1650.68396	-1587.28735	342.65771	1652.55139	-1474.21655	206.55902	1633.77209	-1581.08838	216.9823	1635.6261	-1460.4696	129.14919	1434.50244	-1542.02234	86.74285	1139.33484	-1523.34973	269.16376	1359.66492	-1531.71338	308.92093	1206.64038	-1530.70361	64.8633	1241.31543	-1460.34033	216.49492	1387.83411	-1696.33948	200.42729	1204.53345	-1782.76184	212.00252	1051.11584	-1789.65332	290.15909	965.69983	-1814.20728	410.37534	895.42639	-1798.18506	361.13968	867.04559	-1818.29395	431.76279	824.94916	-1833.73132	200.8541	1395.59619	-1382.78882	116.02206	1205.81079	-1283.02002	101.63032	1080.93481	-1276.93091	118.24387	961.2677	-1244.16455	190.56123	838.82214	-1258.05933	145.04161	843.25153	-1221.75659	177.1021	763.84644	-1220.17627	267.44067	933.83569	-1622.20313	263.07895	939.60901	-1405.18115	80.14194	941.47815	-1570.0835	81.00541	942.18365	-1424.77344	226.86922	598.49396	-1666.27185	209.90633	463.543	-1647.05725	138.62929	287.40686	-1652.53015	77.64219	77.78422	-1600.86462	25.71695	54.51302	-1550.8772	220.86804	31.38784	-1597.67737	310.28699	620.75128	-1329.63672	361.14575	469.15088	-1348.21765	262.35342	320.88373	-1351.60815	175.67627	136.97777	-1405.50049	125.84281	112.35904	-1464.46985	287.94595	55.52625	-1385.11609	338.94019	1687.65295	-1496.78528	-1973.05225	1023.54651	3102.06519	-2012.47449	1022.19043	3140.83936	NaN	NaN	NaN	NaN	NaN	NaN
